<svg width="407" height="407" viewBox="0 0 407 407" fill="none" xmlns="http://www.w3.org/2000/svg">
<path d="M355.101 279.384L228.761 237.243L269.631 359.682C249.281 368.33 226.981 373.079 203.493 373.079C109.883 373.079 33.9102 297.105 33.9102 203.495C33.9102 109.885 109.799 33.9121 203.493 33.9121C297.103 33.9121 373.077 109.801 373.077 203.495C373.077 230.798 366.633 256.575 355.101 279.384Z" fill="url(#paint0_linear_1273_614)"/>
<path d="M288.294 203.506C288.294 189.346 287.87 175.101 287.022 161.11H367.744C364.691 149.24 360.367 137.877 354.94 127.194H284.054C280.832 98.1101 275.745 70.6376 268.707 46.9808C256.327 41.7237 243.185 37.9928 229.448 35.873C237.758 57.4949 245.474 88.4439 250.053 127.194H156.952C161.53 88.4439 169.246 57.4949 177.556 35.873C163.82 37.9928 150.677 41.7237 138.297 46.9808C131.26 70.6376 126.172 98.1101 122.95 127.194H52.0643C46.6376 137.877 42.3132 149.24 39.2607 161.11H119.982C119.134 175.101 118.711 189.346 118.711 203.506C118.711 217.666 119.134 231.911 119.982 245.902H39.2607C42.3132 257.773 46.6376 269.135 52.0643 279.819H122.95C126.172 308.902 131.26 336.375 138.297 360.032C150.677 365.289 163.82 369.02 177.556 371.139C169.246 349.517 161.53 318.568 156.952 279.819H242.93L231.653 245.902H153.899C153.136 232.505 152.627 218.345 152.627 203.506C152.627 188.668 153.136 174.507 153.899 161.11H253.105C253.868 174.507 254.377 188.668 254.377 203.506C254.377 218.175 253.868 232.166 253.105 245.393L355.11 279.395C360.452 268.881 364.691 257.603 367.744 245.902H287.022C287.87 231.911 288.294 217.666 288.294 203.506ZM229.448 371.139C243.185 369.02 256.327 365.289 268.707 360.032C268.877 359.523 269.046 359.014 269.131 358.421L248.018 294.996C243.354 326.708 236.656 352.4 229.448 371.139Z" fill="url(#paint1_linear_1273_614)"/>
<path d="M288.294 203.506C288.294 189.346 287.87 175.101 287.022 161.11H367.744C364.691 149.24 360.367 137.877 354.94 127.194H284.054C280.832 98.1101 275.745 70.6376 268.707 46.9808C256.327 41.7237 243.185 37.9928 229.448 35.873C237.758 57.4949 245.474 88.4439 250.053 127.194H156.952C161.53 88.4439 169.246 57.4949 177.556 35.873C163.82 37.9928 150.677 41.7237 138.297 46.9808C131.26 70.6376 126.172 98.1101 122.95 127.194H52.0643C46.6376 137.877 42.3132 149.24 39.2607 161.11H119.982C119.134 175.101 118.711 189.346 118.711 203.506C118.711 217.666 119.134 231.911 119.982 245.902H39.2607C42.3132 257.773 46.6376 269.135 52.0643 279.819H122.95C126.172 308.902 131.26 336.375 138.297 360.032C150.677 365.289 163.82 369.02 177.556 371.139C169.246 349.517 161.53 318.568 156.952 279.819H242.93L231.653 245.902H153.899C153.136 232.505 152.627 218.345 152.627 203.506C152.627 188.668 153.136 174.507 153.899 161.11H253.105C253.868 174.507 254.377 188.668 254.377 203.506C254.377 218.175 253.868 232.166 253.105 245.393L355.11 279.395C360.452 268.881 364.691 257.603 367.744 245.902H287.022C287.87 231.911 288.294 217.666 288.294 203.506ZM229.448 371.139C243.185 369.02 256.327 365.289 268.707 360.032C268.877 359.523 269.046 359.014 269.131 358.421L248.018 294.996C243.354 326.708 236.656 352.4 229.448 371.139Z" fill="#105870" fill-opacity="0.2"/>
<path d="M348.879 387.389L378.904 357.365L348.879 327.34L386.408 289.811L228.78 237.266L281.326 394.893L318.854 357.365L348.879 387.389Z" fill="url(#paint2_linear_1273_614)"/>
<defs>
<linearGradient id="paint0_linear_1273_614" x1="203.493" y1="33.9121" x2="203.493" y2="373.079" gradientUnits="userSpaceOnUse">
<stop stop-color="#AFED65"/>
<stop offset="1" stop-color="#80C244"/>
</linearGradient>
<linearGradient id="paint1_linear_1273_614" x1="203.502" y1="35.873" x2="203.502" y2="371.139" gradientUnits="userSpaceOnUse">
<stop stop-color="#AFED65"/>
<stop offset="1" stop-color="#80C244"/>
</linearGradient>
<linearGradient id="paint2_linear_1273_614" x1="307.594" y1="237.266" x2="307.594" y2="394.893" gradientUnits="userSpaceOnUse">
<stop stop-color="#AFED65"/>
<stop offset="1" stop-color="#80C244"/>
</linearGradient>
</defs>
</svg>
